<svg width="172" height="42" viewBox="0 0 172 42" fill="none" xmlns="http://www.w3.org/2000/svg">
<path d="M36.523 9.95215C35.9858 9.09689 35.3462 8.57855 34.4509 8.03429L22.1718 0.855263C20.2276 -0.285088 17.823 -0.285088 15.8788 0.855263L3.57415 8.03429C2.60206 8.60447 1.29741 9.64115 1.19508 10.9629C0.964849 14.0989 4.95555 16.0686 7.61601 17.5199C12.2207 20.008 15.1881 21.4334 17.4137 23.7659C18.0845 24.4813 19.8792 24.446 20.5858 23.7659C22.8369 21.4334 25.8044 20.008 30.3835 17.5199C33.0183 16.0945 36.8811 14.3062 36.8044 10.9888C36.8044 10.7037 36.6765 10.2372 36.523 9.95215ZM18.9997 18.6603C16.8509 18.6603 15.1114 16.8979 15.1114 14.7209C15.1114 12.5439 16.8509 10.7815 18.9997 10.7815C21.1486 10.7815 22.8881 12.5439 22.8881 14.7209C22.8881 16.8979 21.1486 18.6603 18.9997 18.6603Z" fill="url(#paint0_linear_146_13920)"/>
<path d="M30.409 19.5933C24.9346 22.5219 21.123 23.8955 19.6137 28.6643C19.4346 29.2345 19.2044 29.8305 18.9997 30.9968C18.7951 29.8305 18.5649 29.2345 18.3858 28.6643C16.9021 23.9215 13.0649 22.5479 7.59044 19.5933C1.93695 16.561 0.709046 15.0319 0.504395 14.384V27.9386C0.504395 30.1934 1.70672 32.3186 3.65091 33.4589L15.93 40.638C16.3649 40.8971 16.7742 41.1045 17.209 41.2341C17.0556 40.6898 16.8765 40.1455 16.6718 39.5235C12.8346 28.6384 6.05556 25.9689 6.05556 25.9689C6.05556 25.9689 9.22765 26.2281 13.73 30.945C15.93 33.2257 17.6439 35.9729 18.9997 38.8238C18.9997 38.8238 22.0183 33.3034 24.2951 30.9191C28.7974 26.2022 31.9695 25.943 31.9695 25.943C31.9695 25.943 25.1904 28.6124 21.3532 39.4976C21.1486 40.0937 20.9695 40.6639 20.816 41.2081C21.2509 41.0786 21.6602 40.8712 22.0951 40.612L34.3742 33.433C36.3184 32.2927 37.5207 30.1934 37.5207 27.9127V14.3581C37.2904 15.006 36.0625 16.5351 30.409 19.5933Z" fill="url(#paint1_linear_146_13920)"/>
<path d="M58.2725 23L57.6396 20.5918H53.4648L52.8145 23H49L53.1924 10.0977H57.8242L62.0693 23H58.2725ZM56.9189 17.7441L56.3652 15.6348C56.2363 15.166 56.0781 14.5596 55.8906 13.8154C55.709 13.0713 55.5889 12.5381 55.5303 12.2158C55.4775 12.5146 55.3721 13.0068 55.2139 13.6924C55.0615 14.3779 54.7188 15.7285 54.1855 17.7441H56.9189ZM67.7998 23.1758C66.1709 23.1758 64.9346 22.7363 64.0908 21.8574C63.2529 20.9785 62.834 19.7158 62.834 18.0693C62.834 16.417 63.2881 15.1367 64.1963 14.2285C65.1045 13.3203 66.3965 12.8662 68.0723 12.8662C69.2266 12.8662 70.3135 13.1182 71.333 13.6221L70.3223 16.1621C69.9062 15.9805 69.5225 15.8369 69.1709 15.7314C68.8193 15.6201 68.4531 15.5645 68.0723 15.5645C67.5156 15.5645 67.085 15.7812 66.7803 16.2148C66.4756 16.6484 66.3232 17.2607 66.3232 18.0518C66.3232 19.6455 66.9121 20.4424 68.0898 20.4424C69.0977 20.4424 70.0645 20.1494 70.9902 19.5635V22.2969C70.1055 22.8828 69.042 23.1758 67.7998 23.1758ZM79.4629 23L78.8037 21.6816H78.7334C78.2705 22.2559 77.7988 22.6484 77.3184 22.8594C76.8379 23.0703 76.2168 23.1758 75.4551 23.1758C74.5176 23.1758 73.7793 22.8945 73.2402 22.332C72.7012 21.7695 72.4316 20.9785 72.4316 19.959C72.4316 18.8984 72.8008 18.1104 73.5391 17.5947C74.2773 17.0732 75.3467 16.7803 76.7471 16.7158L78.4082 16.6631V16.5225C78.4082 15.7021 78.0039 15.292 77.1953 15.292C76.4688 15.292 75.5459 15.5381 74.4268 16.0303L73.4336 13.7627C74.5938 13.165 76.0586 12.8662 77.8281 12.8662C79.1055 12.8662 80.0928 13.1826 80.79 13.8154C81.4932 14.4482 81.8447 15.333 81.8447 16.4697V23H79.4629ZM76.9141 20.75C77.3301 20.75 77.6846 20.6182 77.9775 20.3545C78.2764 20.0908 78.4258 19.748 78.4258 19.3262V18.5527L77.6348 18.5879C76.5039 18.6289 75.9385 19.0449 75.9385 19.8359C75.9385 20.4453 76.2637 20.75 76.9141 20.75ZM87.2764 23.1758C86.5674 23.1758 85.9463 22.9736 85.4131 22.5693C84.8857 22.165 84.4756 21.5703 84.1826 20.7852C83.8955 20 83.752 19.083 83.752 18.0342C83.752 16.417 84.0771 15.1514 84.7275 14.2373C85.3779 13.3232 86.2715 12.8662 87.4082 12.8662C87.9648 12.8662 88.4512 12.9775 88.8672 13.2002C89.2891 13.4229 89.6729 13.7979 90.0186 14.3252H90.0889C89.9775 13.5459 89.9219 12.7666 89.9219 11.9873V9.32422H93.3848V23H90.792L90.0537 21.7432H89.9219C89.3301 22.6982 88.4482 23.1758 87.2764 23.1758ZM88.6826 20.46C89.2334 20.46 89.6201 20.2871 89.8428 19.9414C90.0713 19.5957 90.1943 19.0625 90.2119 18.3418V18.0693C90.2119 17.1904 90.0859 16.5664 89.834 16.1973C89.582 15.8223 89.1865 15.6348 88.6475 15.6348C88.1963 15.6348 87.8447 15.8486 87.5928 16.2764C87.3467 16.6982 87.2236 17.3018 87.2236 18.0869C87.2236 18.8604 87.3496 19.4492 87.6016 19.8535C87.8535 20.2578 88.2139 20.46 88.6826 20.46ZM100.574 23.1758C98.916 23.1758 97.627 22.7363 96.707 21.8574C95.793 20.9727 95.3359 19.7158 95.3359 18.0869C95.3359 16.4053 95.7607 15.1162 96.6104 14.2197C97.46 13.3174 98.6729 12.8662 100.249 12.8662C101.749 12.8662 102.906 13.2588 103.721 14.0439C104.541 14.8232 104.951 15.9482 104.951 17.4189V18.9482H98.8076C98.8311 19.5049 99.0332 19.9414 99.4141 20.2578C99.8008 20.5742 100.325 20.7324 100.987 20.7324C101.591 20.7324 102.145 20.6768 102.648 20.5654C103.158 20.4482 103.709 20.252 104.301 19.9766V22.4463C103.762 22.7217 103.205 22.9121 102.631 23.0176C102.057 23.123 101.371 23.1758 100.574 23.1758ZM100.372 15.2041C99.9678 15.2041 99.6279 15.333 99.3525 15.5908C99.083 15.8428 98.9248 16.2412 98.8779 16.7861H101.831C101.819 16.3057 101.682 15.9219 101.418 15.6348C101.16 15.3477 100.812 15.2041 100.372 15.2041ZM119.119 23V17.5859C119.119 16.9121 119.025 16.4082 118.838 16.0742C118.656 15.7344 118.366 15.5645 117.968 15.5645C117.44 15.5645 117.054 15.79 116.808 16.2412C116.562 16.6924 116.438 17.3984 116.438 18.3594V23H112.993V17.5859C112.993 16.9121 112.905 16.4082 112.729 16.0742C112.554 15.7344 112.27 15.5645 111.877 15.5645C111.338 15.5645 110.945 15.8047 110.699 16.2852C110.453 16.7656 110.33 17.5508 110.33 18.6406V23H106.894V13.042H109.486L109.917 14.2725H110.119C110.383 13.8154 110.764 13.4668 111.262 13.2266C111.766 12.9863 112.337 12.8662 112.976 12.8662C114.411 12.8662 115.419 13.3027 115.999 14.1758H116.271C116.553 13.7656 116.942 13.4463 117.44 13.2178C117.944 12.9834 118.498 12.8662 119.102 12.8662C120.279 12.8662 121.149 13.168 121.712 13.7715C122.274 14.375 122.556 15.292 122.556 16.5225V23H119.119ZM123.689 13.042H127.311L128.998 18.7549C129.08 19.0537 129.136 19.4141 129.165 19.8359H129.235C129.282 19.4316 129.353 19.0771 129.446 18.7725L131.178 13.042H134.685L130.747 23.6328C130.243 24.9805 129.622 25.9326 128.884 26.4893C128.151 27.0459 127.193 27.3242 126.01 27.3242C125.553 27.3242 125.084 27.2744 124.604 27.1748V24.4766C124.914 24.5469 125.269 24.582 125.667 24.582C125.972 24.582 126.238 24.5234 126.467 24.4062C126.695 24.2891 126.895 24.1221 127.064 23.9053C127.234 23.6943 127.416 23.3457 127.609 22.8594L123.689 13.042ZM147.007 10.1504V17.8848C147.007 19.5664 146.529 20.8701 145.574 21.7959C144.625 22.7158 143.254 23.1758 141.461 23.1758C139.709 23.1758 138.361 22.7275 137.418 21.8311C136.48 20.9346 136.012 19.6455 136.012 17.9639V10.1504H139.501V17.6914C139.501 18.5996 139.671 19.2588 140.011 19.6689C140.351 20.0791 140.852 20.2842 141.514 20.2842C142.223 20.2842 142.735 20.082 143.052 19.6777C143.374 19.2676 143.535 18.5996 143.535 17.6738V10.1504H147.007ZM155.998 23L155.339 21.6816H155.269C154.806 22.2559 154.334 22.6484 153.854 22.8594C153.373 23.0703 152.752 23.1758 151.99 23.1758C151.053 23.1758 150.314 22.8945 149.775 22.332C149.236 21.7695 148.967 20.9785 148.967 19.959C148.967 18.8984 149.336 18.1104 150.074 17.5947C150.812 17.0732 151.882 16.7803 153.282 16.7158L154.943 16.6631V16.5225C154.943 15.7021 154.539 15.292 153.73 15.292C153.004 15.292 152.081 15.5381 150.962 16.0303L149.969 13.7627C151.129 13.165 152.594 12.8662 154.363 12.8662C155.641 12.8662 156.628 13.1826 157.325 13.8154C158.028 14.4482 158.38 15.333 158.38 16.4697V23H155.998ZM153.449 20.75C153.865 20.75 154.22 20.6182 154.513 20.3545C154.812 20.0908 154.961 19.748 154.961 19.3262V18.5527L154.17 18.5879C153.039 18.6289 152.474 19.0449 152.474 19.8359C152.474 20.4453 152.799 20.75 153.449 20.75ZM167.002 23V17.5684C167.002 16.9062 166.905 16.4082 166.712 16.0742C166.524 15.7344 166.22 15.5645 165.798 15.5645C165.218 15.5645 164.799 15.7959 164.541 16.2588C164.283 16.7217 164.154 17.5156 164.154 18.6406V23H160.718V13.042H163.311L163.741 14.2725H163.943C164.236 13.8037 164.641 13.4521 165.156 13.2178C165.678 12.9834 166.275 12.8662 166.949 12.8662C168.051 12.8662 168.906 13.1855 169.516 13.8242C170.131 14.4629 170.438 15.3623 170.438 16.5225V23H167.002Z" fill="#3A3A46"/>
<path d="M59.4814 37V29.8613H60.3115V37H59.4814ZM65.8145 37V33.5381C65.8145 33.1019 65.7152 32.7764 65.5166 32.5615C65.318 32.3467 65.0072 32.2393 64.584 32.2393C64.0241 32.2393 63.6139 32.3906 63.3535 32.6934C63.0931 32.9961 62.9629 33.4958 62.9629 34.1924V37H62.1523V31.6484H62.8115L62.9434 32.3809H62.9824C63.1484 32.1172 63.3812 31.9137 63.6807 31.7705C63.9801 31.624 64.3138 31.5508 64.6816 31.5508C65.3262 31.5508 65.8112 31.707 66.1367 32.0195C66.4622 32.3288 66.625 32.8252 66.625 33.5088V37H65.8145ZM70.0234 36.4287C70.1667 36.4287 70.305 36.4189 70.4385 36.3994C70.5719 36.3766 70.6777 36.3538 70.7559 36.3311V36.9512C70.668 36.9935 70.5378 37.0277 70.3652 37.0537C70.196 37.083 70.043 37.0977 69.9062 37.0977C68.8711 37.0977 68.3535 36.5524 68.3535 35.4619V32.2783H67.5869V31.8877L68.3535 31.5508L68.6953 30.4082H69.1641V31.6484H70.7168V32.2783H69.1641V35.4277C69.1641 35.75 69.2406 35.9974 69.3936 36.1699C69.5465 36.3424 69.7565 36.4287 70.0234 36.4287ZM74.0908 37.0977C73.2998 37.0977 72.6748 36.8568 72.2158 36.375C71.7601 35.8932 71.5322 35.2243 71.5322 34.3682C71.5322 33.5055 71.7438 32.8203 72.167 32.3125C72.5934 31.8047 73.1647 31.5508 73.8809 31.5508C74.5514 31.5508 75.082 31.7721 75.4727 32.2148C75.8633 32.6543 76.0586 33.2354 76.0586 33.958V34.4707H72.3721C72.3883 35.099 72.5462 35.5758 72.8457 35.9014C73.1484 36.2269 73.5732 36.3896 74.1201 36.3896C74.6963 36.3896 75.266 36.2692 75.8291 36.0283V36.751C75.5426 36.8747 75.2708 36.9626 75.0137 37.0146C74.7598 37.07 74.4521 37.0977 74.0908 37.0977ZM73.8711 32.2295C73.4414 32.2295 73.098 32.3695 72.8408 32.6494C72.5869 32.9294 72.4372 33.3167 72.3916 33.8115H75.1895C75.1895 33.3005 75.0755 32.9098 74.8477 32.6396C74.6198 32.3662 74.2943 32.2295 73.8711 32.2295ZM79.8867 31.5508C80.1243 31.5508 80.3376 31.5703 80.5264 31.6094L80.4141 32.3613C80.1927 32.3125 79.9974 32.2881 79.8281 32.2881C79.3952 32.2881 79.0241 32.4639 78.7148 32.8154C78.4089 33.167 78.2559 33.6048 78.2559 34.1289V37H77.4453V31.6484H78.1143L78.207 32.6396H78.2461C78.4447 32.2913 78.6839 32.0228 78.9639 31.834C79.2438 31.6452 79.5514 31.5508 79.8867 31.5508ZM85.1895 37V33.5381C85.1895 33.1019 85.0902 32.7764 84.8916 32.5615C84.693 32.3467 84.3822 32.2393 83.959 32.2393C83.3991 32.2393 82.9889 32.3906 82.7285 32.6934C82.4681 32.9961 82.3379 33.4958 82.3379 34.1924V37H81.5273V31.6484H82.1865L82.3184 32.3809H82.3574C82.5234 32.1172 82.7562 31.9137 83.0557 31.7705C83.3551 31.624 83.6888 31.5508 84.0566 31.5508C84.7012 31.5508 85.1862 31.707 85.5117 32.0195C85.8372 32.3288 86 32.8252 86 33.5088V37H85.1895ZM90.9609 37L90.7998 36.2383H90.7607C90.4938 36.5736 90.2269 36.8014 89.96 36.9219C89.6963 37.0391 89.3659 37.0977 88.9688 37.0977C88.4382 37.0977 88.0215 36.9609 87.7188 36.6875C87.4193 36.4141 87.2695 36.0251 87.2695 35.5205C87.2695 34.4398 88.1338 33.8734 89.8623 33.8213L90.7705 33.792V33.46C90.7705 33.04 90.6794 32.7308 90.4971 32.5322C90.318 32.3304 90.0299 32.2295 89.6328 32.2295C89.1868 32.2295 88.6823 32.3662 88.1191 32.6396L87.8701 32.0195C88.1338 31.8763 88.4219 31.764 88.7344 31.6826C89.0501 31.6012 89.3659 31.5605 89.6816 31.5605C90.3197 31.5605 90.7917 31.7021 91.0977 31.9854C91.4069 32.2686 91.5615 32.7227 91.5615 33.3477V37H90.9609ZM89.1299 36.4287C89.6344 36.4287 90.0299 36.2904 90.3164 36.0137C90.6061 35.737 90.751 35.3496 90.751 34.8516V34.3682L89.9404 34.4023C89.2959 34.4251 88.8304 34.526 88.5439 34.7051C88.2607 34.8809 88.1191 35.1559 88.1191 35.5303C88.1191 35.8232 88.207 36.0462 88.3828 36.1992C88.5618 36.3522 88.8109 36.4287 89.1299 36.4287ZM94.9648 36.4287C95.1081 36.4287 95.2464 36.4189 95.3799 36.3994C95.5133 36.3766 95.6191 36.3538 95.6973 36.3311V36.9512C95.6094 36.9935 95.4792 37.0277 95.3066 37.0537C95.1374 37.083 94.9844 37.0977 94.8477 37.0977C93.8125 37.0977 93.2949 36.5524 93.2949 35.4619V32.2783H92.5283V31.8877L93.2949 31.5508L93.6367 30.4082H94.1055V31.6484H95.6582V32.2783H94.1055V35.4277C94.1055 35.75 94.182 35.9974 94.335 36.1699C94.488 36.3424 94.6979 36.4287 94.9648 36.4287ZM97.582 37H96.7715V31.6484H97.582V37ZM96.7031 30.1982C96.7031 30.0127 96.7487 29.8776 96.8398 29.793C96.931 29.7051 97.0449 29.6611 97.1816 29.6611C97.3118 29.6611 97.4242 29.7051 97.5186 29.793C97.613 29.8809 97.6602 30.016 97.6602 30.1982C97.6602 30.3805 97.613 30.5173 97.5186 30.6084C97.4242 30.6963 97.3118 30.7402 97.1816 30.7402C97.0449 30.7402 96.931 30.6963 96.8398 30.6084C96.7487 30.5173 96.7031 30.3805 96.7031 30.1982ZM103.92 34.3193C103.92 35.1917 103.7 35.8737 103.261 36.3652C102.821 36.8535 102.214 37.0977 101.439 37.0977C100.961 37.0977 100.536 36.9854 100.165 36.7607C99.7939 36.5361 99.5075 36.2139 99.3057 35.7939C99.1038 35.374 99.0029 34.8825 99.0029 34.3193C99.0029 33.4469 99.221 32.7682 99.6572 32.2832C100.093 31.7949 100.699 31.5508 101.474 31.5508C102.222 31.5508 102.816 31.7998 103.256 32.2979C103.699 32.7959 103.92 33.4697 103.92 34.3193ZM99.8428 34.3193C99.8428 35.0029 99.9795 35.5238 100.253 35.8818C100.526 36.2399 100.928 36.4189 101.459 36.4189C101.99 36.4189 102.392 36.2415 102.665 35.8867C102.942 35.5286 103.08 35.0062 103.08 34.3193C103.08 33.639 102.942 33.123 102.665 32.7715C102.392 32.4167 101.986 32.2393 101.449 32.2393C100.919 32.2393 100.518 32.4134 100.248 32.7617C99.9779 33.11 99.8428 33.6292 99.8428 34.3193ZM109.008 37V33.5381C109.008 33.1019 108.909 32.7764 108.71 32.5615C108.511 32.3467 108.201 32.2393 107.777 32.2393C107.217 32.2393 106.807 32.3906 106.547 32.6934C106.286 32.9961 106.156 33.4958 106.156 34.1924V37H105.346V31.6484H106.005L106.137 32.3809H106.176C106.342 32.1172 106.575 31.9137 106.874 31.7705C107.174 31.624 107.507 31.5508 107.875 31.5508C108.52 31.5508 109.005 31.707 109.33 32.0195C109.656 32.3288 109.818 32.8252 109.818 33.5088V37H109.008ZM114.779 37L114.618 36.2383H114.579C114.312 36.5736 114.045 36.8014 113.778 36.9219C113.515 37.0391 113.184 37.0977 112.787 37.0977C112.257 37.0977 111.84 36.9609 111.537 36.6875C111.238 36.4141 111.088 36.0251 111.088 35.5205C111.088 34.4398 111.952 33.8734 113.681 33.8213L114.589 33.792V33.46C114.589 33.04 114.498 32.7308 114.315 32.5322C114.136 32.3304 113.848 32.2295 113.451 32.2295C113.005 32.2295 112.501 32.3662 111.938 32.6396L111.688 32.0195C111.952 31.8763 112.24 31.764 112.553 31.6826C112.868 31.6012 113.184 31.5605 113.5 31.5605C114.138 31.5605 114.61 31.7021 114.916 31.9854C115.225 32.2686 115.38 32.7227 115.38 33.3477V37H114.779ZM112.948 36.4287C113.453 36.4287 113.848 36.2904 114.135 36.0137C114.424 35.737 114.569 35.3496 114.569 34.8516V34.3682L113.759 34.4023C113.114 34.4251 112.649 34.526 112.362 34.7051C112.079 34.8809 111.938 35.1559 111.938 35.5303C111.938 35.8232 112.025 36.0462 112.201 36.1992C112.38 36.3522 112.629 36.4287 112.948 36.4287ZM117.865 37H117.055V29.4023H117.865V37ZM124.672 37.0977C124.324 37.0977 124.005 37.0342 123.715 36.9072C123.428 36.777 123.188 36.5785 122.992 36.3115H122.934C122.973 36.624 122.992 36.9202 122.992 37.2002V39.4023H122.182V31.6484H122.841L122.953 32.3809H122.992C123.201 32.0879 123.443 31.8763 123.72 31.7461C123.996 31.6159 124.314 31.5508 124.672 31.5508C125.382 31.5508 125.928 31.7933 126.312 32.2783C126.7 32.7633 126.894 33.4437 126.894 34.3193C126.894 35.1982 126.697 35.8818 126.303 36.3701C125.912 36.8551 125.368 37.0977 124.672 37.0977ZM124.555 32.2393C124.008 32.2393 123.612 32.3906 123.368 32.6934C123.124 32.9961 122.999 33.4779 122.992 34.1387V34.3193C122.992 35.0713 123.118 35.61 123.368 35.9355C123.619 36.2578 124.021 36.4189 124.574 36.4189C125.036 36.4189 125.398 36.2318 125.658 35.8574C125.922 35.4831 126.054 34.9671 126.054 34.3096C126.054 33.6423 125.922 33.1312 125.658 32.7764C125.398 32.4183 125.03 32.2393 124.555 32.2393ZM129.125 37H128.314V29.4023H129.125V37ZM134.135 37L133.974 36.2383H133.935C133.668 36.5736 133.401 36.8014 133.134 36.9219C132.87 37.0391 132.54 37.0977 132.143 37.0977C131.612 37.0977 131.195 36.9609 130.893 36.6875C130.593 36.4141 130.443 36.0251 130.443 35.5205C130.443 34.4398 131.308 33.8734 133.036 33.8213L133.944 33.792V33.46C133.944 33.04 133.853 32.7308 133.671 32.5322C133.492 32.3304 133.204 32.2295 132.807 32.2295C132.361 32.2295 131.856 32.3662 131.293 32.6396L131.044 32.0195C131.308 31.8763 131.596 31.764 131.908 31.6826C132.224 31.6012 132.54 31.5605 132.855 31.5605C133.493 31.5605 133.965 31.7021 134.271 31.9854C134.581 32.2686 134.735 32.7227 134.735 33.3477V37H134.135ZM132.304 36.4287C132.808 36.4287 133.204 36.2904 133.49 36.0137C133.78 35.737 133.925 35.3496 133.925 34.8516V34.3682L133.114 34.4023C132.47 34.4251 132.004 34.526 131.718 34.7051C131.435 34.8809 131.293 35.1559 131.293 35.5303C131.293 35.8232 131.381 36.0462 131.557 36.1992C131.736 36.3522 131.985 36.4287 132.304 36.4287ZM138.139 36.4287C138.282 36.4287 138.42 36.4189 138.554 36.3994C138.687 36.3766 138.793 36.3538 138.871 36.3311V36.9512C138.783 36.9935 138.653 37.0277 138.48 37.0537C138.311 37.083 138.158 37.0977 138.021 37.0977C136.986 37.0977 136.469 36.5524 136.469 35.4619V32.2783H135.702V31.8877L136.469 31.5508L136.811 30.4082H137.279V31.6484H138.832V32.2783H137.279V35.4277C137.279 35.75 137.356 35.9974 137.509 36.1699C137.662 36.3424 137.872 36.4287 138.139 36.4287ZM142.357 32.2783H140.995V37H140.185V32.2783H139.228V31.9121L140.185 31.6191V31.3213C140.185 30.0062 140.759 29.3486 141.908 29.3486C142.191 29.3486 142.523 29.4056 142.904 29.5195L142.694 30.1689C142.382 30.068 142.115 30.0176 141.894 30.0176C141.588 30.0176 141.361 30.1201 141.215 30.3252C141.068 30.527 140.995 30.8525 140.995 31.3018V31.6484H142.357V32.2783ZM147.953 34.3193C147.953 35.1917 147.733 35.8737 147.294 36.3652C146.854 36.8535 146.247 37.0977 145.473 37.0977C144.994 37.0977 144.569 36.9854 144.198 36.7607C143.827 36.5361 143.541 36.2139 143.339 35.7939C143.137 35.374 143.036 34.8825 143.036 34.3193C143.036 33.4469 143.254 32.7682 143.69 32.2832C144.127 31.7949 144.732 31.5508 145.507 31.5508C146.256 31.5508 146.85 31.7998 147.289 32.2979C147.732 32.7959 147.953 33.4697 147.953 34.3193ZM143.876 34.3193C143.876 35.0029 144.013 35.5238 144.286 35.8818C144.56 36.2399 144.962 36.4189 145.492 36.4189C146.023 36.4189 146.425 36.2415 146.698 35.8867C146.975 35.5286 147.113 35.0062 147.113 34.3193C147.113 33.639 146.975 33.123 146.698 32.7715C146.425 32.4167 146.02 32.2393 145.482 32.2393C144.952 32.2393 144.551 32.4134 144.281 32.7617C144.011 33.11 143.876 33.6292 143.876 34.3193ZM151.82 31.5508C152.058 31.5508 152.271 31.5703 152.46 31.6094L152.348 32.3613C152.126 32.3125 151.931 32.2881 151.762 32.2881C151.329 32.2881 150.958 32.4639 150.648 32.8154C150.342 33.167 150.189 33.6048 150.189 34.1289V37H149.379V31.6484H150.048L150.141 32.6396H150.18C150.378 32.2913 150.618 32.0228 150.897 31.834C151.177 31.6452 151.485 31.5508 151.82 31.5508ZM160.282 37V33.5186C160.282 33.0921 160.191 32.7731 160.009 32.5615C159.826 32.3467 159.543 32.2393 159.159 32.2393C158.655 32.2393 158.282 32.3841 158.041 32.6738C157.8 32.9635 157.68 33.4095 157.68 34.0117V37H156.869V33.5186C156.869 33.0921 156.778 32.7731 156.596 32.5615C156.413 32.3467 156.129 32.2393 155.741 32.2393C155.233 32.2393 154.861 32.3923 154.623 32.6982C154.389 33.001 154.271 33.499 154.271 34.1924V37H153.461V31.6484H154.12L154.252 32.3809H154.291C154.444 32.1204 154.659 31.917 154.936 31.7705C155.215 31.624 155.528 31.5508 155.873 31.5508C156.71 31.5508 157.257 31.8535 157.514 32.459H157.553C157.712 32.179 157.943 31.9577 158.246 31.7949C158.549 31.6322 158.894 31.5508 159.281 31.5508C159.887 31.5508 160.339 31.707 160.639 32.0195C160.941 32.3288 161.093 32.8252 161.093 33.5088V37H160.282Z" fill="#768589"/>
<defs>
<linearGradient id="paint0_linear_146_13920" x1="1.18555" y1="0" x2="39.1473" y2="4.07496" gradientUnits="userSpaceOnUse">
<stop stop-color="#136FF0"/>
<stop offset="1" stop-color="#529AFF"/>
</linearGradient>
<linearGradient id="paint1_linear_146_13920" x1="23.3313" y1="8.42588" x2="11.2316" y2="44.4228" gradientUnits="userSpaceOnUse">
<stop stop-color="#39B54A"/>
<stop offset="1" stop-color="#ACDF23"/>
</linearGradient>
</defs>
</svg>
